<?xml version="1.0" standalone="no"?>
<!DOCTYPE svg PUBLIC "-//W3C//DTD SVG 20010904//EN"
 "http://www.w3.org/TR/2001/REC-SVG-20010904/DTD/svg10.dtd">
<svg version="1.0" xmlns="http://www.w3.org/2000/svg"
 width="1300.000000pt" height="1300.000000pt" viewBox="0 0 1300.000000 1300.000000"
 preserveAspectRatio="xMidYMid meet">
<metadata>
Created by potrace 1.16, written by Peter Selinger 2001-2019
</metadata>
<g transform="translate(0.000000,1300.000000) scale(0.100000,-0.100000)"
fill="#000000" stroke="none">
<path d="M7474 9115 c4 -12 -19 -15 -157 -17 l-162 -3 -1 -70 c0 -49 2 -62 7
-45 6 18 8 10 5 -27 -2 -29 1 -53 5 -53 5 0 8 3 8 8 -1 4 0 27 1 52 l3 45 7
-45 c4 -29 8 -35 8 -18 l2 27 125 3 125 3 0 -29 c0 -58 11 -17 18 65 l7 84
163 3 162 2 1 -87 c1 -65 4 -79 9 -53 l7 35 3 -30 c1 -17 4 -23 7 -13 4 15 22
17 134 20 122 3 130 2 136 -17 6 -19 7 -18 14 5 13 44 10 141 -3 139 -7 -1
-79 -1 -160 0 -124 1 -148 3 -148 16 0 13 -25 15 -166 15 -142 0 -165 -2 -160
-15z"/>
<path d="M6380 9110 c-39 -6 -33 -7 38 -8 l82 -2 2 -82 c1 -46 1 -93 1 -105 0
-13 4 -23 8 -23 5 0 10 26 11 58 l1 57 7 -45 c5 -29 8 -36 9 -20 l3 25 8 -25
c5 -16 8 -19 9 -8 1 15 17 17 126 20 77 2 127 -1 129 -7 3 -5 5 24 5 66 1 61
-2 78 -15 83 -9 3 -81 6 -160 6 -89 0 -144 4 -144 10 0 11 -50 11 -120 0z"/>
<path d="M6067 9051 c-54 -15 -96 -29 -93 -31 2 -3 -8 -6 -22 -6 -15 -1 -44
-9 -65 -18 l-38 -17 3 -97 3 -97 70 3 c39 1 81 5 93 8 13 2 21 1 18 -4 -3 -5
9 -6 27 -3 31 4 31 5 7 12 -21 6 -19 7 15 9 22 1 49 6 60 11 14 6 8 7 -21 3
-23 -3 -44 -2 -47 3 -3 4 8 9 24 10 16 1 38 11 49 21 19 17 20 29 18 119 l-3
100 -98 -26z"/>
<path d="M5532 8683 c4 -49 6 -94 3 -100 -6 -17 0 -16 35 2 17 9 32 16 35 16
17 1 98 43 88 46 -6 2 -30 -5 -53 -17 -23 -12 -39 -17 -35 -11 12 21 67 43 91
37 13 -4 24 -2 24 3 0 5 -15 12 -32 14 -18 2 -12 3 14 1 33 -2 46 1 42 9 -2 7
10 17 28 23 18 6 42 14 53 18 11 4 7 0 -8 -9 -16 -9 -27 -19 -24 -22 11 -10
55 29 52 45 -2 9 -4 20 -4 25 -1 4 -72 7 -159 7 l-158 0 8 -87z"/>
<path d="M5125 8570 c-10 -11 -13 -20 -7 -20 19 0 14 -28 -8 -40 -11 -6 -30
-8 -42 -5 -17 5 -31 -2 -53 -25 -16 -16 -25 -30 -19 -31 5 0 53 0 107 1 l97 1
1 -48 c1 -26 2 -58 2 -70 l1 -21 27 21 c16 12 28 28 28 35 1 6 6 12 12 12 20
0 69 41 62 52 -4 7 0 9 10 5 9 -3 19 -2 22 3 4 6 -28 10 -79 10 l-86 0 -1 43
c-1 23 0 54 1 70 2 29 -9 34 -28 15 -10 -10 -14 -10 -21 0 -6 9 -12 8 -26 -8z"/>
<path d="M4527 7879 c-9 -17 -14 -36 -10 -41 3 -6 1 -8 -4 -5 -6 4 -14 0 -17
-9 -9 -23 -8 -24 24 -24 l30 0 0 -139 c0 -78 4 -142 10 -146 5 -3 7 -12 4 -19
-3 -8 2 -12 13 -11 34 2 43 14 32 42 -5 14 -8 28 -5 30 2 3 7 -6 11 -18 7 -21
9 -19 30 21 13 25 20 51 17 58 -4 11 -6 11 -13 0 -5 -7 -9 -8 -9 -3 0 6 10 21
21 35 14 16 19 19 15 8 -3 -10 -1 -18 4 -18 6 0 10 6 10 14 0 7 10 26 22 42
13 15 17 25 10 20 -14 -8 27 65 43 76 6 5 6 8 -2 8 -6 0 -19 -10 -28 -22 l-17
-23 7 23 c6 22 5 22 -84 22 -100 0 -95 -4 -91 73 1 20 0 37 -2 37 -2 0 -11
-14 -21 -31z"/>
<path d="M10510 7794 c0 -8 22 -48 30 -54 3 -3 28 -51 55 -107 27 -56 53 -100
56 -97 4 2 5 -4 3 -13 -3 -10 2 -27 10 -38 9 -11 16 -15 16 -8 0 6 9 9 20 6
18 -5 20 0 20 36 0 22 -4 41 -10 41 -5 0 -7 -8 -4 -17 5 -15 4 -15 -4 -3 -6 8
-9 18 -6 22 7 11 -22 63 -51 92 -14 14 -25 31 -25 39 0 8 -10 26 -21 41 -12
15 -19 30 -15 33 3 3 -6 12 -20 20 -27 13 -54 17 -54 7z"/>
<path d="M4320 7422 c-12 -30 -19 -61 -16 -69 3 -8 2 -12 -2 -9 -4 2 -19 -40
-34 -95 l-26 -99 123 0 123 0 -3 73 c-2 45 -1 59 4 37 l7 -35 6 30 c19 85 36
138 40 125 3 -8 4 -2 2 14 -2 16 -4 39 -4 51 0 21 -5 22 -72 24 -40 1 -85 3
-100 5 -25 3 -29 -2 -48 -52z"/>
<path d="M10729 7443 c0 -16 -2 -44 -5 -63 -3 -21 6 -73 23 -132 l28 -98 47 0
c37 0 50 4 58 20 6 11 8 20 5 20 -3 0 -1 9 5 21 7 11 18 18 25 15 8 -3 17 -2
19 3 3 4 -8 7 -24 7 -16 0 -27 -3 -24 -8 3 -4 1 -8 -4 -8 -5 0 -19 24 -31 53
-13 28 -32 70 -42 93 -11 23 -19 49 -19 58 0 9 -8 16 -17 16 -14 0 -15 2 -5 9
11 7 10 10 -3 15 -29 11 -35 7 -36 -21z"/>
<path d="M10834 6751 c3 -41 6 -114 6 -163 l0 -88 73 1 c60 1 147 15 111 18
-7 1 -13 48 -18 128 -3 70 -11 132 -16 138 -5 7 -7 15 -3 18 3 4 4 7 2 8 -2 0
-39 4 -83 8 l-79 7 7 -75z"/>
<path d="M4229 6773 c0 -27 -2 -91 -4 -143 -5 -128 -4 -130 53 -129 43 1 113
16 85 18 -16 1 -18 81 -3 81 6 0 10 33 10 80 0 56 4 80 12 80 9 0 9 3 0 12
-19 19 -14 28 16 29 48 2 -46 18 -110 18 l-58 1 -1 -47z"/>
<path d="M4187 6493 c-4 -3 -7 -75 -7 -159 0 -125 3 -153 15 -158 25 -9 35 28
35 132 0 159 -13 216 -43 185z"/>
<path d="M4225 6118 c-3 -29 -4 -100 -1 -158 l4 -105 62 0 62 0 -1 132 c-2
117 0 133 16 142 16 9 16 10 2 11 -9 0 -19 7 -23 15 -4 11 -21 15 -60 15 l-55
0 -6 -52z"/>
<path d="M10840 6010 l0 -160 73 0 c39 0 77 4 84 8 8 5 11 47 10 140 -1 80 2
134 8 136 6 3 4 5 -2 5 -7 1 -13 8 -13 16 0 12 -16 15 -80 15 l-80 0 0 -160z"/>
<path d="M4224 5525 c2 -11 10 -50 17 -87 7 -39 17 -64 22 -61 6 3 7 1 3 -5
-4 -7 3 -48 15 -92 l21 -80 77 1 c60 1 68 3 41 9 -28 6 -30 8 -10 9 18 1 21 4
11 10 -11 7 -11 9 0 13 11 4 10 10 -4 31 -9 14 -17 37 -17 50 0 12 -5 28 -12
35 -6 6 -10 35 -9 66 1 43 -2 57 -16 65 -17 10 -17 10 2 11 17 0 17 2 5 10 -8
5 -43 10 -77 10 -39 0 -63 4 -67 13 -3 6 -4 3 -2 -8z"/>
<path d="M10777 5448 c-8 -40 -23 -99 -32 -131 -8 -32 -13 -63 -9 -69 5 -7 3
-8 -6 -3 -10 6 -12 4 -7 -7 3 -9 -1 -25 -9 -36 -8 -12 -25 -50 -38 -84 -14
-35 -40 -94 -59 -133 -47 -96 -54 -120 -32 -112 9 4 43 7 76 7 l59 0 0 160 0
160 138 2 c93 1 123 3 92 8 l-45 7 45 3 c33 2 37 4 18 7 -26 4 -28 8 -28 49 0
37 3 44 19 44 16 0 20 11 26 81 6 64 4 83 -6 90 -9 6 -2 9 23 9 20 0 39 3 42
8 2 4 -53 9 -123 10 l-128 4 -16 -74z"/>
<path d="M4445 4870 c-4 -6 0 -22 9 -35 9 -13 16 -26 16 -29 0 -2 -45 -36 -99
-76 l-100 -71 27 -55 27 -54 97 1 97 1 -10 25 c-17 46 -11 122 15 166 23 39
25 56 16 122 -1 6 -5 1 -10 -10 -7 -17 -9 -17 -9 -2 -1 10 -9 17 -20 17 -11 0
-26 3 -34 6 -8 3 -18 0 -22 -6z"/>
<path d="M10379 4594 c-26 -31 -32 -46 -18 -43 38 5 39 2 39 -146 l0 -145 43
1 c24 1 32 4 19 6 -22 4 -23 5 -5 21 20 19 39 47 53 79 5 12 18 28 30 35 11 7
20 22 20 33 1 28 65 95 93 96 21 0 21 1 2 9 -11 5 -73 9 -137 9 l-117 1 -3 31
c-3 30 -4 31 -19 13z"/>
<path d="M4099 4537 c-16 -11 -27 -23 -24 -27 3 -4 -1 -7 -8 -6 -6 0 -46 -24
-88 -54 l-77 -55 2 -80 1 -80 95 0 c107 -1 142 3 134 16 -3 5 3 10 13 10 10 1
5 5 -12 9 -30 8 -30 8 -3 9 16 1 28 8 31 19 4 13 5 12 6 -5 1 -25 21 -42 21
-18 0 9 4 14 9 11 10 -7 21 90 21 189 l0 73 -46 4 c-32 2 -54 -2 -75 -15z"/>
<path d="M3647 4212 c-15 -9 -27 -20 -27 -24 0 -5 -5 -8 -10 -8 -28 0 -37 -25
-33 -100 6 -105 10 -120 34 -120 11 0 17 -4 14 -10 -3 -5 -2 -10 4 -10 5 0 12
4 15 9 3 5 34 7 69 5 34 -2 54 -1 45 2 -21 6 -24 24 -5 24 7 0 26 14 42 30 16
17 34 30 41 30 7 0 15 12 17 28 2 16 5 6 7 -28 3 -44 5 -35 10 45 l6 100 4
-85 3 -85 7 60 c4 33 8 79 9 103 l1 43 -77 -1 c-43 0 -94 2 -114 4 -21 2 -46
-2 -62 -12z"/>
<path d="M10078 4213 c-2 -5 -1 -66 2 -136 l5 -129 38 36 c20 21 37 41 37 46
0 6 12 10 26 10 26 0 41 11 60 45 6 10 19 23 29 29 27 15 45 33 45 44 0 5 7
15 15 22 8 7 12 16 10 20 -3 5 9 11 27 13 18 2 -40 5 -129 5 -89 1 -163 -1
-165 -5z"/>
<path d="M9748 3738 c-3 -149 -5 -163 -20 -160 -12 2 -18 -4 -18 -15 -1 -10
-7 -67 -14 -128 l-14 -110 32 -35 31 -35 -32 29 -33 30 0 -33 c0 -30 2 -32 33
-28 17 2 33 9 33 15 1 7 2 80 3 162 l1 150 63 1 c58 1 136 16 95 18 -22 1 -23
14 -3 31 11 9 15 33 15 91 0 44 4 79 8 79 4 0 18 20 29 44 27 55 26 56 -108
56 l-99 0 -2 -162z"/>
<path d="M5852 3819 c2 -49 27 -81 40 -51 5 13 7 12 7 -6 1 -13 5 -20 11 -17
6 3 10 2 10 -2 0 -13 39 -34 69 -38 40 -5 173 -70 164 -80 -5 -4 -3 -5 3 -2
16 9 18 136 2 141 -28 8 -283 88 -295 93 -10 4 -13 -6 -11 -38z"/>
<path d="M6504 3645 c2 -33 5 -61 5 -62 1 -2 70 -3 155 -3 l154 0 5 58 c2 31
4 58 3 58 0 1 -74 4 -164 5 l-163 4 5 -60z"/>
<path d="M7152 3643 l3 -58 79 -5 c56 -4 84 -1 97 8 11 7 19 9 19 3 0 -6 26
-9 60 -9 l60 1 1 31 c0 17 2 43 4 57 l3 27 -164 1 -165 2 3 -58z"/>
<path d="M7802 3643 l3 -58 155 0 155 0 5 58 5 57 -163 0 -163 0 3 -57z"/>
<path d="M9755 3240 c-3 -5 -5 -78 -4 -162 l1 -153 -127 -2 c-69 0 -129 -3
-131 -6 -4 -4 27 -26 88 -63 10 -6 29 -21 42 -33 13 -12 33 -23 45 -24 13 -1
22 -9 23 -22 1 -11 4 5 8 35 l7 55 2 -55 c3 -54 3 -54 13 -21 7 26 12 31 18
21 6 -9 10 8 12 50 l3 65 50 11 c29 6 44 13 35 16 -11 5 -10 7 5 8 16 1 14 4
-10 15 -19 9 -24 14 -12 15 13 0 17 9 18 43 1 23 2 58 4 77 2 29 -6 43 -44 85
-25 27 -32 38 -16 23 27 -25 32 -26 41 -11 8 14 10 12 10 -12 -1 -16 5 -30 12
-32 8 -3 12 8 12 35 0 23 5 43 13 45 6 3 -16 6 -50 6 -34 1 -65 -3 -68 -9z"/>
</g>
</svg>
